# xmcd
# 
# Track frame offsets:
#     150
#     10989
#     34935
#     54337
#     76501
#     101823
#     124041
#     146234
#     173026
#     191859
#     213923
#     245552
# 
# Disc length: 3596
# 
# Revision: 11
# Processed by: cddbd v1.5.2PL0 Copyright (c) Steve Scherf et al.
# Submitted via: fre:ac v1.0.17
# 
DISCID=a30e0a0c
DTITLE=中島みゆき - ララバイSINGER
DYEAR=2006
DGENRE=JPop
TTITLE0=桜らららら
TTITLE1=ただ・愛のためにだけ
TTITLE2=宙船（そらふね）
TTITLE3=あのさよならにさよならを
TTITLE4=Clavis -鍵-
TTITLE5=水
TTITLE6=あなたでなければ
TTITLE7=五月の陽ざし
TTITLE8=とろ
TTITLE9=お月さまほしい
TTITLE10=重き荷を負いて
TTITLE11=ララバイSINGER
EXTD=YEAR: 2006
EXTT0=
EXTT1=
EXTT2=
EXTT3=
EXTT4=
EXTT5=
EXTT6=
EXTT7=
EXTT8=
EXTT9=
EXTT10=
EXTT11=
PLAYORDER=
